<svg width="128" height="128" viewBox="0 0 128 128" fill="none" xmlns="http://www.w3.org/2000/svg">
  <path fill="#000" d="M 105.93 91.23 A 50.00 50.00 0 0 1 66.62 113.93 L 65.29 88.64 A 24.68 24.68 0 0 0 84.69 77.44 Z"/>
  <path fill="#000" d="M 61.38 113.93 A 50.00 50.00 0 0 1 22.07 91.23 L 43.31 77.44 A 24.68 24.68 0 0 0 62.71 88.64 Z"/>
  <path fill="#000" d="M 19.45 86.70 A 50.00 50.00 0 0 1 19.45 41.30 L 42.01 52.80 A 24.68 24.68 0 0 0 42.01 75.20 Z"/>
  <path fill="#000" d="M 22.07 36.77 A 50.00 50.00 0 0 1 61.38 14.07 L 62.71 39.36 A 24.68 24.68 0 0 0 43.31 50.56 Z"/>
  <path fill="#000" d="M 66.62 14.07 A 50.00 50.00 0 0 1 105.93 36.77 L 84.69 50.56 A 24.68 24.68 0 0 0 65.29 39.36 Z"/>
</svg>
